<?xml version="1.0" encoding="UTF-8" standalone="no"?>
<!-- Created with Inkscape (http://www.inkscape.org/) -->

<svg
   width="96"
   height="96"
   viewBox="0 0 25.399999 25.4"
   version="1.1"
   id="svg1"
   inkscape:version="1.3 (0e150ed6c4, 2023-07-21)"
   sodipodi:docname="mode-marker-mode-blank.svg"
   xmlns:inkscape="http://www.inkscape.org/namespaces/inkscape"
   xmlns:sodipodi="http://sodipodi.sourceforge.net/DTD/sodipodi-0.dtd"
   xmlns="http://www.w3.org/2000/svg"
   xmlns:svg="http://www.w3.org/2000/svg">
  <sodipodi:namedview
     id="namedview1"
     pagecolor="#ffffff"
     bordercolor="#666666"
     borderopacity="1.0"
     inkscape:showpageshadow="2"
     inkscape:pageopacity="0.0"
     inkscape:pagecheckerboard="0"
     inkscape:deskcolor="#d1d1d1"
     inkscape:document-units="mm"
     inkscape:zoom="5.9515615"
     inkscape:cx="40.829621"
     inkscape:cy="45.450257"
     inkscape:window-width="2307"
     inkscape:window-height="1237"
     inkscape:window-x="1181"
     inkscape:window-y="160"
     inkscape:window-maximized="0"
     inkscape:current-layer="layer1" />
  <defs
     id="defs1" />
  <g
     inkscape:label="Layer 1"
     inkscape:groupmode="layer"
     id="layer1">
    <rect
       style="vector-effect:non-scaling-stroke;fill:#000000;fill-opacity:1;stroke-width:0.264583;stroke-linejoin:bevel;-inkscape-stroke:hairline;paint-order:markers stroke fill"
       id="rect1"
       width="25.4"
       height="25.4"
       x="0"
       y="0" />
    <polygon
       points="379.416,78.029 376.083,104.918 400.631,93.441 425.177,104.918 421.848,78.029 440.345,58.23 413.743,53.089 400.631,29.377 387.52,53.089 360.918,58.23 "
       style="fill:#c6d866;fill-opacity:1;stroke:#19ffff;stroke-width:1.0116;stroke-dasharray:none;stroke-opacity:1"
       id="polygon2-4-8-3"
       transform="matrix(0.03214164,-0.00982669,0.00982669,0.03214164,3.9955424,20.224165)" />
  </g>
  <polygon
     points="400.631,29.377 387.52,53.089 360.918,58.23 379.416,78.029 376.083,104.918 400.631,93.441 425.177,104.918 421.848,78.029 440.345,58.23 413.743,53.089 "
     style="fill:#c6d866;fill-opacity:1;stroke:#19ffff;stroke-width:1.0116;stroke-dasharray:none;stroke-opacity:1"
     id="polygon2-4"
     transform="matrix(0.03214164,-0.00982669,0.00982669,0.03214164,-6.8910433,22.683702)" />
  <polygon
     points="425.177,104.918 421.848,78.029 440.345,58.23 413.743,53.089 400.631,29.377 387.52,53.089 360.918,58.23 379.416,78.029 376.083,104.918 400.631,93.441 "
     style="fill:#c6d866;fill-opacity:1;stroke:#19ffff;stroke-width:1.0116;stroke-dasharray:none;stroke-opacity:1"
     id="polygon2-4-8"
     transform="matrix(0.03214164,-0.00982669,0.00982669,0.03214164,9.1943413,11.681023)" />
  <polygon
     points="400.631,93.441 425.177,104.918 421.848,78.029 440.345,58.23 413.743,53.089 400.631,29.377 387.52,53.089 360.918,58.23 379.416,78.029 376.083,104.918 "
     style="fill:#c6d866;fill-opacity:1;stroke:#19ffff;stroke-width:1.0116;stroke-dasharray:none;stroke-opacity:1"
     id="polygon2-4-9"
     transform="matrix(0.03214164,-0.00982669,0.00982669,0.03214164,-10.313958,6.3856462)" />
  <polygon
     points="425.177,104.918 421.848,78.029 440.345,58.23 413.743,53.089 400.631,29.377 387.52,53.089 360.918,58.23 379.416,78.029 376.083,104.918 400.631,93.441 "
     style="fill:#c6d866;fill-opacity:1;stroke:#19ffff;stroke-width:1.0116;stroke-dasharray:none;stroke-opacity:1"
     id="polygon2-4-8-1"
     transform="matrix(0.0580164,-0.01773741,0.01773741,0.0580164,-11.570316,12.225548)" />
</svg>
