<?xml version="1.0" encoding="UTF-8" standalone="no"?>
<!-- Uploaded to: SVG Repo, www.svgrepo.com, Generator: SVG Repo Mixer Tools -->

<svg
   width="800px"
   height="800px"
   viewBox="0 0 400 400"
   fill="none"
   version="1.1"
   id="svg2"
   sodipodi:docname="wave-svgrepo-com.svg"
   inkscape:version="1.3.2 (091e20e, 2023-11-25)"
   xmlns:inkscape="http://www.inkscape.org/namespaces/inkscape"
   xmlns:sodipodi="http://sodipodi.sourceforge.net/DTD/sodipodi-0.dtd"
   xmlns="http://www.w3.org/2000/svg"
   xmlns:svg="http://www.w3.org/2000/svg">
  <defs
     id="defs2" />
  <sodipodi:namedview
     id="namedview2"
     pagecolor="#ffffff"
     bordercolor="#666666"
     borderopacity="1.0"
     inkscape:showpageshadow="2"
     inkscape:pageopacity="0.0"
     inkscape:pagecheckerboard="0"
     inkscape:deskcolor="#d1d1d1"
     inkscape:zoom="0.29311614"
     inkscape:cx="344.57331"
     inkscape:cy="448.62763"
     inkscape:window-width="736"
     inkscape:window-height="480"
     inkscape:window-x="43"
     inkscape:window-y="25"
     inkscape:window-maximized="0"
     inkscape:current-layer="svg2" />
  <path
     d="M 17.906923,330.1098 C 16.34178,309.41453 27.008875,288.34003 33.247111,269.57524 74.510798,145.52223 164.10812,58.151401 281.58561,65.202244 c 117.47868,7.050845 90.89637,102.713206 72.85086,112.596556 -20.23314,11.08191 -26.08975,-28.06136 -42.18546,-19.76514 -11.43313,5.89287 -1.04914,29.19748 -26.84552,33.35339 -9.60165,1.55125 -16.44945,-20.78891 -26.84551,-23.4716 -7.84141,-2.01631 -12.06575,18.52913 -22.05012,18.52913 -8.27482,0 -10.1727,-16.85459 -18.22056,-20.99489 -6.22121,-3.21175 -11.49349,22.23246 -21.0891,24.70759 -12.28308,3.16025 -21.13258,-49.06562 -47.80665,-3.24763"
     stroke="#000000"
     stroke-opacity="0.9"
     stroke-width="21.9621"
     stroke-linecap="round"
     stroke-linejoin="round"
     id="path1" />
  <path
     d="m 252.90017,187.65718 c -57.16925,69.41443 -35.77833,139.41255 73.42191,150.22446"
     stroke="#000000"
     stroke-opacity="0.9"
     stroke-width="21.9621"
     stroke-linecap="round"
     stroke-linejoin="round"
     id="path2" />
</svg>
